<svg width="512" height="607" viewBox="0 0 512 607" fill="none" xmlns="http://www.w3.org/2000/svg">
<path d="M229.38 5.60137L0 105.026V350.085C0 481.406 256 606.815 256 606.815C256 606.815 512 481.406 512 350.085V105.026L282.62 5.60137C274.185 1.90374 265.138 0 256 0C246.862 0 237.815 1.90374 229.38 5.60137V5.60137Z" fill="url(#paint0_linear_126_216)"/>
<path d="M340.918 269.918C330.167 277.898 316.771 281.54 303.424 280.11C290.077 278.681 277.772 272.286 268.983 262.213C260.195 252.14 255.577 239.136 256.058 225.819C256.539 212.502 262.083 199.86 271.575 190.438C281.068 181.015 293.803 175.511 307.219 175.034C320.634 174.556 333.734 179.141 343.881 187.865C354.029 196.588 360.471 208.804 361.911 222.052C363.352 235.301 359.683 248.599 351.644 259.271L390.329 297.672C391.753 299.084 392.554 301 392.556 302.998C392.557 304.996 391.759 306.913 390.336 308.327C388.914 309.741 386.984 310.536 384.971 310.537C382.959 310.538 381.028 309.746 379.603 308.334L340.918 269.933V269.918ZM347.047 227.707C347.047 217.722 343.051 208.146 335.939 201.086C328.826 194.026 319.179 190.059 309.121 190.059C299.062 190.059 289.415 194.026 282.303 201.086C275.19 208.146 271.194 217.722 271.194 227.707C271.194 237.692 275.19 247.268 282.303 254.328C289.415 261.389 299.062 265.355 309.121 265.355C319.179 265.355 328.826 261.389 335.939 254.328C343.051 247.268 347.047 237.692 347.047 227.707ZM347.047 297.296V423.477C347.046 424.865 346.658 426.226 345.927 427.409C345.195 428.592 344.148 429.552 342.902 430.181C341.655 430.811 340.258 431.086 338.864 430.977C337.469 430.867 336.133 430.377 335.002 429.561L256.024 372.547L177.045 429.561C175.914 430.377 174.578 430.867 173.184 430.977C171.789 431.086 170.392 430.811 169.145 430.181C167.899 429.552 166.852 428.592 166.121 427.409C165.389 426.226 165.001 424.865 165 423.477V227.707C165 217.722 168.996 208.146 176.108 201.086C183.221 194.026 192.868 190.059 202.926 190.059H252.352C244.038 202.403 240.038 217.116 240.968 231.937C241.897 246.757 247.705 260.864 257.498 272.089C267.291 283.314 280.527 291.035 295.171 294.065C309.815 297.096 325.056 295.268 338.552 288.863L347.047 297.296Z" fill="white"/>
<defs>
<linearGradient id="paint0_linear_126_216" x1="-63.2967" y1="-66.2614" x2="692.602" y2="-4.3999" gradientUnits="userSpaceOnUse">
<stop stop-color="#10002B"/>
<stop offset="0.551946" stop-color="#7B2CBF"/>
<stop offset="0.847317" stop-color="#B8B8FF"/>
</linearGradient>
</defs>
</svg>
