<svg fill="#FFFFFF" xmlns="http://www.w3.org/2000/svg"  viewBox="0 0 128 128" width="128px" height="128px"><path d="M 64 1 C 29.26 1 1 29.26 1 64 C 1 98.74 29.26 127 64 127 C 98.74 127 127 98.74 127 64 C 127 29.26 98.74 1 64 1 z M 64 7 C 95.43 7 121 32.57 121 64 C 121 95.43 95.43 121 64 121 C 32.57 121 7 95.43 7 64 C 7 32.57 32.57 7 64 7 z M 64 20.839844 C 62.93 20.839844 61.950156 21.410078 61.410156 22.330078 L 37.990234 62.490234 C 37.450234 63.420234 37.450234 64.579766 37.990234 65.509766 L 61.410156 105.66016 C 61.950156 106.58016 62.93 107.15039 64 107.15039 C 65.07 107.15039 66.049844 106.58016 66.589844 105.66016 L 90.009766 65.509766 C 90.549766 64.579766 90.549766 63.420234 90.009766 62.490234 L 66.589844 22.330078 C 66.049844 21.410078 65.07 20.839844 64 20.839844 z M 64 29.800781 L 83.179688 62.679688 L 64 73.630859 L 44.820312 62.679688 L 64 29.800781 z M 48.550781 71.720703 L 62.509766 79.699219 C 62.969766 79.959219 63.48 80.099609 64 80.099609 C 64.52 80.099609 65.030234 79.969219 65.490234 79.699219 L 79.449219 71.720703 L 64 98.199219 L 48.550781 71.720703 z"/></svg>