<svg width="512" height="607" viewBox="0 0 512 607" fill="none" xmlns="http://www.w3.org/2000/svg">
<path d="M229.38 5.60137L0 105.026V350.085C0 481.406 256 606.815 256 606.815C256 606.815 512 481.406 512 350.085V105.026L282.62 5.60137C274.185 1.90374 265.138 0 256 0C246.862 0 237.815 1.90374 229.38 5.60137V5.60137Z" fill="url(#paint0_linear_126_219)"/>
<path d="M233.919 187.372H286.293C293.494 187.372 299.386 181.48 299.386 174.279C299.386 167.077 293.494 161.185 286.293 161.185H233.919C226.718 161.185 220.826 167.077 220.826 174.279C220.826 181.48 226.718 187.372 233.919 187.372ZM352.153 244.852L361.973 235.032C364.394 232.596 365.753 229.301 365.753 225.867C365.753 222.432 364.394 219.137 361.973 216.702L361.842 216.571C359.406 214.149 356.111 212.791 352.677 212.791C349.242 212.791 345.947 214.149 343.511 216.571L333.691 226.391C312.838 209.609 286.873 200.462 260.106 200.466C197.257 200.466 143.836 252.316 142.265 315.164C141.841 330.903 144.577 346.567 150.309 361.23C156.042 375.894 164.655 389.259 175.641 400.538C186.626 411.816 199.76 420.778 214.268 426.894C228.776 433.011 244.362 436.157 260.106 436.148C282.29 436.16 304.027 429.906 322.812 418.105C341.598 406.304 356.668 389.437 366.287 369.447C375.906 349.456 379.682 327.155 377.182 305.112C374.682 283.069 366.005 262.181 352.153 244.852V244.852ZM260.106 409.961C209.434 409.961 168.452 368.979 168.452 318.307C168.452 267.635 209.434 226.653 260.106 226.653C310.778 226.653 351.76 267.635 351.76 318.307C351.76 368.979 310.778 409.961 260.106 409.961ZM244.525 344.494H196.079C191.103 344.494 187.961 349.731 190.187 354.183C197.399 368.794 209.226 380.621 223.837 387.833C226.849 389.273 230.646 388.095 232.348 385.084L250.286 354.314C250.852 353.31 251.144 352.175 251.134 351.023C251.125 349.871 250.812 348.741 250.229 347.747C249.646 346.753 248.812 345.93 247.811 345.359C246.81 344.788 245.677 344.49 244.525 344.494V344.494ZM295.851 248.257C294.363 247.543 292.661 247.416 291.083 247.901C289.506 248.386 288.17 249.448 287.34 250.875L269.271 282.169C268.665 283.164 268.336 284.303 268.318 285.469C268.299 286.634 268.592 287.783 269.165 288.797C269.739 289.811 270.574 290.654 271.582 291.238C272.59 291.822 273.736 292.127 274.902 292.12H324.133C329.109 292.12 332.251 286.883 330.025 282.562C322.487 267.845 310.539 255.852 295.851 248.257V248.257ZM284.722 340.566C284.165 339.548 283.348 338.697 282.354 338.1C281.359 337.503 280.224 337.181 279.064 337.167C277.905 337.154 276.762 337.45 275.755 338.024C274.747 338.598 273.91 339.43 273.33 340.435L246.62 386.524C246.063 387.478 245.758 388.558 245.731 389.663C245.705 390.767 245.958 391.86 246.468 392.841C246.977 393.821 247.727 394.656 248.646 395.269C249.566 395.881 250.625 396.251 251.726 396.344C269.271 398.177 286.948 393.987 301.874 384.691C304.755 382.858 305.54 379.061 303.969 376.049L284.722 340.566V340.566ZM237.978 321.318L206.816 273.396C204.197 269.468 198.436 269.468 195.817 273.396C185.279 288.624 180.414 307.064 182.069 325.508C182.331 328.913 185.211 331.4 188.616 331.4H232.479C237.585 331.4 240.728 325.639 237.978 321.318V321.318ZM285.9 314.903L312.349 363.872C314.706 368.193 320.729 368.455 323.609 364.527C334.87 349.077 339.845 330.222 338.274 311.105C338.111 309.485 337.35 307.983 336.14 306.894C334.929 305.804 333.356 305.205 331.727 305.213H291.792C286.686 305.213 283.543 310.451 285.9 314.903V314.903ZM236.145 294.346C238.764 298.405 244.787 298.274 247.274 294.084L272.676 250.221C275.164 246.031 272.283 240.793 267.438 240.27C249.631 238.699 231.693 243.019 216.636 252.97C213.755 254.934 213.1 258.993 214.934 261.874L236.145 294.346V294.346Z" fill="white"/>
<defs>
<linearGradient id="paint0_linear_126_219" x1="-63.2967" y1="-66.2614" x2="692.602" y2="-4.3999" gradientUnits="userSpaceOnUse">
<stop stop-color="#10002B"/>
<stop offset="0.551946" stop-color="#7B2CBF"/>
<stop offset="0.847317" stop-color="#B8B8FF"/>
</linearGradient>
</defs>
</svg>
