<svg width="25" height="25" viewBox="0 0 25 25" fill="none" xmlns="http://www.w3.org/2000/svg">
<path d="M12.4761 0.335938C6.35748 0.335152 1.14167 4.77254 0.162043 10.8122C-0.817585 16.8518 2.72823 22.7104 8.53336 24.6436C9.15859 24.7561 9.38242 24.3722 9.38242 24.0421C9.38242 23.7458 9.37242 22.9605 9.36866 21.9163C5.89864 22.6666 5.16588 20.2432 5.16588 20.2432C4.93744 19.4891 4.44633 18.8419 3.78162 18.4188C2.65621 17.6448 3.8679 17.6623 3.8679 17.6623C4.66904 17.7721 5.37414 18.2468 5.77735 18.9478C6.11864 19.5683 6.69363 20.0268 7.37457 20.2215C8.0555 20.4161 8.78597 20.3308 9.40368 19.9844C9.46173 19.3517 9.74322 18.7603 10.1977 18.3163C7.4292 18.0024 4.51814 16.932 4.51814 12.1515C4.50277 10.9151 4.96193 9.71974 5.80111 8.81154C5.42141 7.73529 5.46612 6.55478 5.92615 5.51033C5.92615 5.51033 6.97279 5.17396 9.35491 6.78705C11.398 6.22685 13.5541 6.22685 15.5972 6.78705C17.9806 5.17271 19.026 5.51033 19.026 5.51033C19.4881 6.55429 19.5329 7.73562 19.151 8.81154C19.9933 9.71966 20.452 10.9181 20.4315 12.1565C20.4315 16.9495 17.5179 18.0024 14.7394 18.3113C15.3388 18.9241 15.6461 19.7647 15.5834 20.6196C15.5834 22.2877 15.5684 23.6332 15.5684 24.0421C15.5684 24.376 15.791 24.7636 16.4275 24.6411C22.2302 22.7046 25.7722 16.8457 24.7906 10.8077C23.8089 4.76963 18.5934 0.334538 12.4761 0.335938Z" fill="#9381FF"/>
</svg>
