<svg width="24" height="24" viewBox="0 0 24 24" fill="none" xmlns="http://www.w3.org/2000/svg">
<path d="M12.217 23.1397C9.14089 23.1397 8.77825 23.1234 7.57781 23.0709C6.64168 23.0401 5.71767 22.8498 4.84556 22.5082C3.33665 21.921 2.1435 20.7274 1.55686 19.2182C1.22837 18.343 1.0512 17.4182 1.03292 16.4835C0.962891 15.2856 0.962891 14.8929 0.962891 11.8405C0.962891 8.75567 0.979147 8.39554 1.03292 7.20135C1.0516 6.26791 1.22876 5.34443 1.55686 4.47035C2.14286 2.95921 3.33795 1.76457 4.84931 1.17914C5.72294 0.849275 6.64665 0.671637 7.58031 0.653951C8.7745 0.586426 9.16714 0.586426 12.217 0.586426C15.3181 0.586426 15.6745 0.602682 16.8562 0.653951C17.7923 0.67179 18.7184 0.849409 19.5947 1.17914C21.1056 1.76524 22.3005 2.95964 22.8872 4.47035C23.2212 5.35717 23.3993 6.29508 23.4136 7.24261C23.4836 8.44055 23.4836 8.83195 23.4836 11.8831C23.4836 14.9342 23.4661 15.3343 23.4136 16.5185C23.395 17.4541 23.2174 18.3797 22.8884 19.2558C22.3003 20.7659 21.1053 21.96 19.5947 22.547C18.7197 22.8748 17.7954 23.052 16.8612 23.0709C15.667 23.1397 15.2756 23.1397 12.217 23.1397ZM12.1745 2.5659C9.11588 2.5659 8.79826 2.58091 7.60407 2.63468C6.89129 2.64412 6.1854 2.77565 5.51706 3.02357C4.53014 3.40122 3.74919 4.17898 3.36752 5.16435C3.1177 5.83997 2.98614 6.55358 2.97863 7.27387C2.91235 8.48557 2.91235 8.80318 2.91235 11.8405C2.91235 14.8416 2.92361 15.2055 2.97863 16.4097C2.98982 17.1227 3.1213 17.8287 3.36752 18.498C3.74976 19.4827 4.53056 20.2599 5.51706 20.6375C6.18495 20.8871 6.89113 21.0187 7.60407 21.0264C8.81452 21.0964 9.13338 21.0964 12.1745 21.0964C15.2419 21.0964 15.5595 21.0814 16.7437 21.0264C17.4569 21.0177 18.1634 20.8862 18.8319 20.6375C19.8129 20.2566 20.5887 19.4812 20.9702 18.5005C21.2196 17.8243 21.3511 17.1104 21.3591 16.3897H21.3729C21.4266 15.1943 21.4266 14.8754 21.4266 11.8205C21.4266 8.76567 21.4129 8.4443 21.3591 7.25012C21.3479 6.53792 21.2164 5.83274 20.9702 5.16435C20.5896 4.18221 19.8136 3.40532 18.8319 3.02357C18.1635 2.7744 17.457 2.64283 16.7437 2.63468C15.5345 2.5659 15.2181 2.5659 12.1745 2.5659ZM12.217 17.6164C9.87864 17.6179 7.76966 16.2106 6.87363 14.0507C5.97761 11.8908 6.47104 9.40382 8.1238 7.74963C9.77656 6.09543 12.2631 5.59985 14.4238 6.494C16.5844 7.38816 17.9936 9.49592 17.9941 11.8343C17.9907 15.0243 15.407 17.6102 12.217 17.6164ZM12.217 8.08042C10.1452 8.08042 8.46564 9.75997 8.46564 11.8318C8.46564 13.9036 10.1452 15.5832 12.217 15.5832C14.2888 15.5832 15.9684 13.9036 15.9684 11.8318C15.9636 9.76196 14.2868 8.08523 12.217 8.08042ZM18.2192 7.18885C17.4757 7.18608 16.8748 6.58186 16.8762 5.83836C16.8776 5.09486 17.4807 4.49287 18.2242 4.49287C18.9677 4.49287 19.5708 5.09485 19.5722 5.83835C19.5725 6.19706 19.43 6.54114 19.1761 6.79455C18.9223 7.04796 18.5779 7.18984 18.2192 7.18885Z" fill="#9381FF"/>
</svg>
