<svg width="23" height="24" viewBox="0 0 23 24" fill="none" xmlns="http://www.w3.org/2000/svg">
<path d="M22.9985 11.8405C22.9985 14.8253 21.8128 17.6879 19.7022 19.7984C17.5917 21.909 14.7291 23.0947 11.7444 23.0947C8.75958 23.0947 5.89705 21.909 3.78649 19.7984C1.67593 17.6879 0.490234 14.8253 0.490234 11.8405C0.490234 8.85577 1.67593 5.99324 3.78649 3.88268C5.89705 1.77212 8.75958 0.586426 11.7444 0.586426C14.7291 0.586426 17.5917 1.77212 19.7022 3.88268C21.8128 5.99324 22.9985 8.85577 22.9985 11.8405V11.8405ZM12.1481 8.89478C11.0536 9.35057 8.86471 10.2931 5.58413 11.7224C5.05237 11.9334 4.77243 12.1416 4.74711 12.3442C4.7049 12.686 5.13397 12.8211 5.71777 13.0053L5.96396 13.0827C6.53792 13.2698 7.31164 13.4879 7.71257 13.4963C8.07833 13.5047 8.48488 13.3556 8.93364 13.0461C11.999 10.9768 13.5816 9.93157 13.6801 9.90906C13.7504 9.89218 13.8489 9.87248 13.9136 9.93157C13.9797 9.98924 13.9727 10.1004 13.9656 10.1299C13.9234 10.3114 12.2395 11.8757 11.3687 12.686C11.0972 12.9392 10.9045 13.1179 10.8651 13.1587C10.7784 13.2473 10.6902 13.3346 10.6007 13.4203C10.0661 13.9352 9.66656 14.3207 10.6218 14.9509C11.0818 15.2548 11.4503 15.5038 11.8175 15.7542C12.217 16.0271 12.6165 16.2986 13.1342 16.639C13.2651 16.7234 13.3917 16.8149 13.5141 16.9021C13.9797 17.2341 14.4003 17.5323 14.9166 17.4845C15.2177 17.4564 15.5286 17.175 15.6861 16.3309C16.0589 14.3376 16.7918 10.0202 16.9606 8.24063C16.9709 8.0927 16.9648 7.94408 16.9424 7.7975C16.9291 7.67922 16.8719 7.57025 16.782 7.49224C16.654 7.40388 16.5014 7.3581 16.3459 7.36141C15.9239 7.36844 15.2725 7.59493 12.1481 8.89478V8.89478Z" fill="#9381FF"/>
</svg>
